# AST/ASF file generated using VICON BodyLanguage
# -----------------------------------------------
:version 1.10
:name VICON
:units
  mass 1.0
  length 0.45
  angle deg
:documentation
   .ast/.asf automatically generated from VICON data using
   VICON BodyBuilder and BodyLanguage model FoxedUp or BRILLIANT.MOD
:root
   order TX TY TZ RX RY RZ
   axis XYZ
   position 0 0 0  
   orientation 0 0 0 
:bonedata
  begin
     id 1 
     name lhipjoint
     direction 0.602128 -0.715006 0.355257 
     length 2.21237 
     axis 0 0 0  XYZ
  end
  begin
     id 2 
     name lfemur
     direction 0.34202 -0.939693 0  
     length 6.71649  
     axis 0 0 20  XYZ
    dof rx ry rz
    limits (-160.0 20.0)
           (-70.0 70.0)
           (-60.0 70.0)
  end
  begin
     id 3 
     name ltibia
     direction 0.34202 -0.939693 0   
     length 6.97123   
     axis 0 0 20   XYZ
    dof rx
    limits (-10.0 170.0)
  end
  begin
     id 4 
     name lfoot
     direction 0.0655697 -0.180151 0.981451   
     length 1.80924   
     axis -90 7.62852e-016 20   XYZ
    dof rx rz
    limits (-45.0 90.0)
           (-70.0 20.0)
  end
  begin
     id 5 
     name ltoes
     direction 1.53545e-011 -4.21827e-011 1   
     length 0.916331   
     axis -90 7.62852e-016 20   XYZ
    dof rx
    limits (-90.0 20.0)
  end
  begin
     id 6 
     name rhipjoint
     direction -0.625414 -0.698792 0.347201   
     length 2.2637  
     axis 0 0 0  XYZ 
  end
  begin
     id 7 
     name rfemur
     direction -0.34202 -0.939693 0   
     length 7.07595   
     axis 0 0 -20   XYZ
    dof rx ry rz
    limits (-160.0 20.0)
           (-70.0 70.0)
           (-70.0 60.0)
  end
  begin
     id 8 
     name rtibia
     direction -0.34202 -0.939693 0   
     length 7.22924   
     axis 0 0 -20   XYZ
    dof rx
    limits (-10.0 170.0)
 end
 begin
     id 9 
     name rfoot
     direction -0.0766747 -0.210662 0.974547   
     length 1.98482  
     axis -90 -7.62852e-016 -20   XYZ
    dof rx rz
    limits (-45.0 90.0)
           (-20.0 70.0)
  end
  begin
     id 10 
     name rtoes
     direction -1.53532e-011 -4.21867e-011 1   
     length 0.999842   
     axis -90 -7.62852e-016 -20   XYZ
    dof rx
    limits (-90.0 20.0)
  end
  begin
     id 11 
     name lowerback
     direction -0.0224668 0.997354 -0.0691422   
     length 2.09945   
     axis 0 0 0   XYZ
    dof rx ry rz
    limits (-20.0 45.0)
           (-30.0 30.0)
           (-30.0 30.0)
  end
  begin
     id 12 
     name upperback
     direction 0.0134698 0.998451 -0.0539888   
     length 2.09758   
     axis 0 0 0   XYZ
    dof rx ry rz
    limits (-20.0 45.0)
           (-30.0 30.0)
           (-30.0 30.0)
  end
  begin
     id 13 
     name thorax
     direction 0.0241905 0.99948 -0.0213333   
     length 2.10428   
     axis 0 0 0   XYZ
    dof rx ry rz
    limits (-20.0 45.0)
           (-30.0 30.0)
           (-30.0 30.0)
  end
  begin
     id 14 
     name lowerneck
     direction -0.00866847 0.995978 0.0891737   
     length 1.3959   
     axis 0 0 0   XYZ
    dof rx ry rz
    limits (-20.0 45.0)
           (-30.0 30.0)
           (-30.0 30.0)
  end
  begin
     id 15 
     name upperneck
     direction 0.0680679 0.992203 0.104404   
     length 1.39452   
     axis 0 0 0   XYZ
    dof rx ry rz
    limits (-20.0 45.0)
           (-30.0 30.0)
           (-30.0 30.0)
  end
  begin
     id 16
     name head
     direction 0.0242216 0.999358 0.0264054  
     length 1.40433  
     axis 0 0 0   XYZ
    dof rx ry rz
    limits (-20.0 45.0)
           (-30.0 30.0)
           (-30.0 30.0)
  end
  begin
     id 17 
     name lclavicle
     direction 0.929368 0.362991 -0.0671771  
     length 3.04887  
     axis 0 0 0   XYZ
    dof ry rz
    limits (-20.0 10.0)
           (0.0 20.0)
  end
  begin
     id 18 
     name lhumerus
     direction 1 -4.48967e-011 -7.13741e-028   
     length 4.77195   
     axis -180 -30 -90   XYZ
    dof rx ry rz
    limits (-60.0 90.0)
           (-90.0 90.0)
           (-90.0 90.0)
  end
  begin
     id 19
     name lradius
     direction 1 -4.48977e-011 3.60404e-027   
     length 2.98444   
     axis -180 -30 -90   XYZ
    dof rx
    limits (-10.0 170.0)
  end
  begin
     id 20
     name lwrist
     direction 1 -4.48997e-011 7.54877e-027   
     length 1.49222   
     axis -7.18178e-015 90 90   XYZ
    dof ry
    limits (-180.0 0.0)
 end
  begin
     id 21 
     name lhand
     direction 1 -4.489e-011 1.51105e-026   
     length 0.992285   
     axis -9.63605e-015 90 90   XYZ
    dof rx rz
    limits (-90.0 90.0)
           (-45.0 45.0)
  end
  begin
     id 22 
     name lfingers
     direction 1 -4.48998e-011 3.01948e-026   
     length 0.800006   
     axis -1.92718e-014 90 90   XYZ
    dof rx
    limits (0.0 90.0)
  end
  begin
     id 23
     name lthumb
     direction 0.707107 -6.34881e-011 0.707107   
     length 1.14865   
     axis -90 45 -3.53137e-014   XYZ
    dof rx rz
    limits (-45.0 45.0)
           (-45.0 45.0)
  end
  begin
     id 24 
     name rclavicle
     direction -0.945672 0.324529 0.0196374   
     length 3.4236  
     axis 0 0 0   XYZ 
    dof ry rz
    limits (-10.0 20.0)
           (-20.0 0.0)
  end
  begin
     id 25 
     name rhumerus
     direction -1 -4.4896e-011 1.02757e-029  
     length 4.62052   
     axis -180 30 90   XYZ
    dof rx ry rz
    limits (-90.0 60.0)
           (-90.0 90.0)
           (-90.0 90.0)
  end
  begin
     id 26 
     name rradius
     direction -1 -4.48982e-011 3.85962e-027   
     length 2.95332   
     axis -180 30 90   XYZ
    dof rx
    limits (-10.0 170.0)
  end
  begin
     id 27 
     name rwrist
     direction -1 -4.48961e-011 7.55118e-027   
     length 1.47666   
     axis -7.18178e-015 -90 -90   XYZ
    dof ry
    limits (-180.0 0.0)
  end
  begin
     id 28
     name rhand
     direction -1 -4.48984e-011 1.50994e-026   
     length 0.990956   
     axis -9.63605e-015 -90 -90   XYZ
    dof rx rz
    limits (-90.0 90.0)
           (-45.0 45.0)
  end
  begin
     id 29
     name rfingers
     direction -1 -4.4892e-011 3.02158e-026   
     length 0.798934   
     axis -1.92718e-014 -90 -90   XYZ
    dof rx
    limits (0.0 90.0)
  end
  begin
     id 30
     name rthumb
     direction -0.707107 -6.34916e-011 0.707107   
     length 1.14711   
     axis -90 -45 3.53137e-014   XYZ
    dof rx rz
    limits (-45.0 45.0)
           (-45.0 45.0)
  end
:hierarchy
  begin
    root lhipjoint rhipjoint lowerback
    lhipjoint lfemur
    lfemur ltibia
    ltibia lfoot
    lfoot ltoes
    rhipjoint rfemur
    rfemur rtibia
    rtibia rfoot
    rfoot rtoes
    lowerback upperback
    upperback thorax
    thorax lowerneck lclavicle rclavicle
    lowerneck upperneck
    upperneck head
    lclavicle lhumerus
    lhumerus lradius
    lradius lwrist
    lwrist lhand lthumb
    lhand lfingers
    rclavicle rhumerus
    rhumerus rradius
    rradius rwrist
    rwrist rhand rthumb
    rhand rfingers
  end

#!OML:ASF H:\ManfredObstacles\Project 1\Capture day 1\Session 1\Male.ASF
:FULLY-SPECIFIED
:DEGREES
234
root -8.87032 16.4074 19.5075 -171.927 16.6706 -180.208
lowerback -7.50602 -0.962934 -3.03705
upperback 2.46552 -0.933156 -0.427885
thorax 6.84599 -0.571179 1.13477
lowerneck 1.20557 -1.70717 -5.81755
upperneck -5.16507 -1.80824 9.93474
head -1.73141 -0.912915 4.38009
rclavicle 2.98177e-016 6.36111e-015
rhumerus -35.2602 -13.6655 -80.2063
rradius 32.1001
rwrist 25.8534
rhand 2.89631 -6.72203
rfingers 7.12502
rthumb 28.3615 -34.5938
lclavicle 2.98177e-016 6.36111e-015
lhumerus -30.7235 11.3344 80.6302
lradius 22.4134
lwrist -27.926
lhand -5.75404 10.0458
lfingers 7.12502
lthumb 20.0688 39.0293
rfemur -16.1854 -0.468608 26.5358
rtibia 28.0233
rfoot -14.9592 24.8886
rtoes 34.2174
lfemur -36.5898 -8.15685 -15.2207
ltibia 51.474
lfoot -2.7273 4.1757
ltoes 10.1501
235
root -8.8387 16.4055 19.3309 -171.853 17.8669 -179.708
lowerback -7.381 -0.795982 -2.41932
upperback 2.51415 -0.789062 -0.284687
thorax 6.81027 -0.479064 0.958251
lowerneck 1.29825 -1.58916 -5.87677
upperneck -5.21647 -1.67522 9.67804
head -1.77805 -0.848563 4.30063
rclavicle -8.39865e-015 0
rhumerus -34.9816 -13.3365 -80.3059
rradius 32.2794
rwrist 26.1461
rhand 2.92317 -6.16323
rfingers 7.12502
rthumb 28.3871 -34.0307
lclavicle -8.39865e-015 0
lhumerus -30.916 12.0092 80.3731
lradius 22.2507
lwrist -28.4142
lhand -5.76862 9.85726
lfingers 7.12502
lthumb 20.0548 38.8423
rfemur -15.2816 0.264002 26.8777
rtibia 27.7813
rfoot -14.9705 25.3057
rtoes 35.0995
lfemur -36.729 -9.04228 -13.8755
ltibia 47.2044
lfoot -2.94042 4.03995
ltoes 10.5515
236
root -8.79915 16.4125 19.1536 -171.713 18.7268 -180.457
lowerback -7.68754 -0.844862 -3.07197
upperback 2.3969 -0.765418 -0.456122
thorax 6.87016 -0.489656 1.14583
lowerneck 1.40146 -1.48107 -5.92405
upperneck -5.16724 -1.56113 9.46092
head -1.79139 -0.794003 4.23149
rclavicle -1.3418e-014 -1.51076e-014
rhumerus -34.8676 -12.8577 -80.5347
rradius 32.5828
rwrist 25.9771
rhand 2.98021 -5.6784
rfingers 7.12502
rthumb 28.4416 -33.5368
lclavicle -1.3418e-014 -1.51076e-014
lhumerus -31.2061 12.2437 80.2008
lradius 22.2698
lwrist -28.2344
lhand -5.49678 9.93559
lfingers 7.12502
lthumb 20.316 38.893
rfemur -14.911 0.331689 25.9363
rtibia 27.5818
rfoot -14.808 26.016
rtoes 36.1583
lfemur -37.1215 -10.3136 -13.7304
ltibia 42.6006
lfoot -2.82073 3.52734
ltoes 9.38142
237
root -8.76117 16.3928 18.9681 -171.586 19.5481 -180.558
lowerback -7.82993 -0.783083 -2.98847
upperback 2.36651 -0.68116 -0.536139
thorax 6.91358 -0.442887 1.02527
lowerneck 1.33908 -1.41697 -5.94216
upperneck -5.01488 -1.4921 9.38982
head -1.73591 -0.757971 4.20468
rclavicle -3.82164e-014 7.55382e-015
rhumerus -34.8161 -12.3324 -80.8589
rradius 32.9858
rwrist 25.4139
rhand 2.98501 -5.26646
rfingers 7.12502
rthumb 28.4462 -33.1241
lclavicle -3.82164e-014 7.55382e-015
lhumerus -31.3481 12.4957 79.9403
lradius 22.0827
lwrist -28.5405
lhand -5.16799 10.1267
lfingers 7.12502
lthumb 20.632 39.0501
rfemur -14.2644 0.315132 25.6635
rtibia 27.3479
rfoot -14.6099 26.8443
rtoes 36.8845
lfemur -36.9396 -10.9276 -13.287
ltibia 37.9165
lfoot -1.91842 2.70657
ltoes 8.44435
238
root -8.71521 16.3736 18.7788 -171.472 20.4777 -180.45
lowerback -7.91915 -0.653329 -2.78404
upperback 2.46861 -0.521096 -0.572066
thorax 7.06388 -0.357084 0.893271
lowerneck 0.832714 -1.38974 -5.85847
upperneck -4.78569 -1.44828 9.33085
head -1.5719 -0.722594 4.15354
rclavicle -3.24019e-014 1.86858e-014
rhumerus -34.5238 -12.0307 -81.1371
rradius 33.2495
rwrist 25.0279
rhand 2.88926 -4.81786
rfingers 7.12502
rthumb 28.3547 -32.6907
lclavicle -3.24019e-014 1.86858e-014
lhumerus -31.1646 12.905 79.645
lradius 21.6887
lwrist -29.1249
lhand -4.93776 10.2675
lfingers 7.12502
lthumb 20.8532 39.1668
rfemur -13.5358 0.570914 25.614
rtibia 27.1868
rfoot -14.5489 27.5509
rtoes 37.5332
lfemur -36.4301 -10.9537 -12.8632
ltibia 33.1298
lfoot -0.861645 1.6924
ltoes 6.94806
239
root -8.66524 16.3704 18.587 -171.375 21.3327 -180.603
lowerback -8.08213 -0.633 -2.98461
upperback 2.413 -0.470049 -0.545793
thorax 7.0993 -0.341719 1.03974
lowerneck 0.738976 -1.29646 -5.86191
upperneck -4.56732 -1.35093 9.14649
head -1.49211 -0.671749 4.08221
rclavicle 1.27222e-014 -1.03368e-014
rhumerus -34.5553 -11.4923 -81.2341
rradius 33.5173
rwrist 24.7593
rhand 2.83183 -4.29192
rfingers 7.12502
rthumb 28.2998 -32.1739
lclavicle 1.27222e-014 -1.03368e-014
lhumerus -31.4554 13.3295 79.4517
lradius 21.5894
lwrist -29.3727
lhand -4.79728 10.3634
lfingers 7.12502
lthumb 20.9882 39.2478
rfemur -12.7474 0.711026 25.2901
rtibia 26.8092
rfoot -14.1437 28.4124
rtoes 38.9192
lfemur -36.0784 -10.775 -12.7874
ltibia 28.6953
lfoot 0.623069 0.351546
ltoes 7.56227
240
root -8.61505 16.3698 18.3835 -171.539 22.0384 -181.012
lowerback -8.23518 -0.691735 -3.36598
upperback 2.35289 -0.496711 -0.598219
thorax 7.12916 -0.369214 1.19437
lowerneck 0.923835 -1.17845 -5.82006
upperneck -4.35088 -1.23539 8.91909
head -1.46533 -0.620053 3.99102
rclavicle -2.82771e-014 -5.56597e-015
rhumerus -34.8122 -10.9119 -81.335
rradius 33.7694
rwrist 24.4697
rhand 2.76601 -4.37051
rfingers 7.12502
rthumb 28.2369 -32.2629
lclavicle -2.82771e-014 -5.56597e-015
lhumerus -32.0557 13.7682 79.1356
lradius 21.4571
lwrist -30.0649
lhand -4.84034 10.3162
lfingers 7.12502
lthumb 20.9468 39.2052
rfemur -11.5842 0.427119 24.6888
rtibia 26.1828
rfoot -13.6516 29.3979
rtoes 40.1778
lfemur -35.4734 -10.2618 -13.3405
ltibia 24.6705
lfoot 2.13552 -1.41712
ltoes 7.52205
241
root -8.56205 16.3482 18.1973 -170.723 22.4452 -179.82
lowerback -8.55732 -0.630922 -2.25585
upperback 2.31548 -0.556955 -0.329029
thorax 7.26471 -0.361546 0.841763
lowerneck 0.560684 -1.14126 -5.63871
upperneck -4.09646 -1.1867 8.8148
head -1.32104 -0.587562 3.9087
rclavicle -3.08116e-015 3.97569e-016
rhumerus -34.7211 -10.7878 -81.5176
rradius 33.8782
rwrist 24.3738
rhand 2.77747 -5.77553
rfingers 7.12502
rthumb 28.2479 -33.6661
lclavicle -3.08116e-015 3.97569e-016
lhumerus -32.2051 13.9747 78.8121
lradius 21.1474
lwrist -30.9687
lhand -5.04829 10.2819
lfingers 7.12502
lthumb 20.747 39.1928
rfemur -10.8177 0.621801 25.8447
rtibia 25.3516
rfoot -13.7015 29.3257
rtoes 39.8867
lfemur -35.4693 -9.01329 -12.4264
ltibia 21.1248
lfoot 3.81012 -2.85958
ltoes 9.88902
242
root -8.50672 16.3309 18.0046 -170.148 22.9021 -179.184
lowerback -8.85579 -0.58921 -1.6994
upperback 2.26569 -0.572901 -0.178189
thorax 7.37834 -0.35032 0.682671
lowerneck 0.276412 -1.10142 -5.56771
upperneck -3.90177 -1.13498 8.76528
head -1.21092 -0.554772 3.87044
rclavicle -5.92875e-014 7.95139e-015
rhumerus -34.6953 -10.6792 -81.6043
rradius 33.9765
rwrist 24.3672
rhand 2.92004 -5.68191
rfingers 7.12502
rthumb 28.3841 -33.5499
lclavicle -5.92875e-014 7.95139e-015
lhumerus -32.2718 14.0643 78.6449
lradius 20.9385
lwrist -31.0227
lhand -5.14918 10.4454
lfingers 7.12502
lthumb 20.6501 39.3669
rfemur -9.99305 0.791573 26.4053
rtibia 24.521
rfoot -13.2681 29.4119
rtoes 40.4673
lfemur -35.2704 -7.68021 -12.2786
ltibia 18.0253
lfoot 5.07675 -4.6533
ltoes 8.31108
243
root -8.45513 16.319 17.8026 -169.966 23.2737 -179.123
lowerback -8.94678 -0.634642 -1.62704
upperback 2.14095 -0.645034 -0.142628
thorax 7.29881 -0.382458 0.668395
lowerneck 0.322221 -1.02977 -5.75859
upperneck -3.76775 -1.05181 8.87054
head -1.18209 -0.513455 3.94388
rclavicle 3.70236e-014 -3.97569e-015
rhumerus -34.8787 -10.5219 -81.5746
rradius 33.9623
rwrist 24.3716
rhand 2.92241 -5.59862
rfingers 7.12502
rthumb 28.3864 -33.4662
lclavicle 3.70236e-014 -3.97569e-015
lhumerus -32.472 14.3506 78.4143
lradius 20.6047
lwrist -30.9177
lhand -5.48275 10.4129
lfingers 7.12502
lthumb 20.3295 39.3689
rfemur -9.04395 0.900303 26.3539
rtibia 23.8902
rfoot -12.6252 29.806
rtoes 42.1613
lfemur -34.7471 -6.55962 -12.8528
ltibia 15.3229
lfoot 6.19269 -5.29367
ltoes 9.37581
244
root -8.40317 16.3075 17.5942 -170.125 23.5847 -179.516
lowerback -8.95742 -0.735961 -1.99961
upperback 2.08592 -0.730728 -0.215858
thorax 7.25309 -0.437666 0.788331
lowerneck 0.373482 -0.960617 -5.95049
upperneck -3.62771 -0.96946 9.02895
head -1.15241 -0.472624 4.03678
rclavicle -5.86415e-015 -1.35174e-014
rhumerus -35.0545 -10.3903 -81.5194
rradius 33.8454
rwrist 24.3779
rhand 2.80609 -5.4457
rfingers 7.12502
rthumb 28.2752 -33.3318
lclavicle -5.86415e-015 -1.35174e-014
lhumerus -32.6334 15.0136 77.9741
lradius 20.136
lwrist -31.5489
lhand -5.97072 10.1605
lfingers 7.12502
lthumb 19.8605 39.1658
rfemur -7.93944 1.03189 25.8467
rtibia 23.4255
rfoot -12.6335 29.9119
rtoes 42.9933
lfemur -34.0051 -5.77999 -13.8918
ltibia 13.1913
lfoot 6.89497 -5.51933
ltoes 8.43183
245
root -8.34575 16.298 17.3835 -170.692 24.2148 -180.691
lowerback -8.98508 -0.809387 -3.20854
upperback 2.11263 -0.659154 -0.485557
thorax 7.31064 -0.446433 1.1951
lowerneck 0.374308 -0.907479 -5.99723
upperneck -3.55388 -0.902172 9.08486
head -1.13425 -0.438845 4.06478
rclavicle 7.95139e-016 1.19271e-014
rhumerus -35.2242 -10.3859 -81.4305
rradius 33.7689
rwrist 24.5052
rhand 2.79658 -5.36443
rfingers 7.12502
rthumb 28.2662 -33.252
lclavicle 7.95139e-016 1.19271e-014
lhumerus -32.7582 15.8884 77.4554
lradius 19.7235
lwrist -32.4751
lhand -6.16289 10.0348
lfingers 7.12502
lthumb 19.6758 39.0591
rfemur -6.80114 1.2889 24.513
rtibia 23.1293
rfoot -13.094 29.7696
rtoes 42.4687
lfemur -33.1131 -5.2021 -15.6328
ltibia 11.774
lfoot 6.90451 -4.91915
ltoes 9.35606
246
root -8.28534 16.2674 17.1775 -169.67 24.3068 -179.623
lowerback -9.50068 -0.815868 -2.32429
upperback 1.86764 -0.788157 -0.192214
thorax 7.33982 -0.478986 0.982863
lowerneck 0.439935 -0.874807 -6.05747
upperneck -3.49776 -0.862569 9.17969
head -1.13123 -0.420504 4.11054
rclavicle 9.19876e-014 -1.94809e-014
rhumerus -35.5415 -10.6645 -81.2527
rradius 33.6521
rwrist 24.7826
rhand 2.86584 -5.34424
rfingers 7.12502
rthumb 28.3323 -33.2209
lclavicle 9.19876e-014 -1.94809e-014
lhumerus -32.976 16.6226 76.9264
lradius 19.4061
lwrist -33.0503
lhand -5.96596 10.0805
lfingers 7.12502
lthumb 19.8651 39.0853
rfemur -6.43857 1.64073 25.5241
rtibia 22.8532
rfoot -13.4675 29.3248
rtoes 41.5723
lfemur -33.4358 -4.14892 -15.1972
ltibia 11.4332
lfoot 6.89692 -5.15912
ltoes 9.30738
247
root -8.22687 16.2409 16.9474 -169.438 24.7431 -179.176
lowerback -9.70986 -0.744413 -1.94189
upperback 1.78831 -0.74582 -0.0679629
thorax 7.36928 -0.445044 0.903549
lowerneck 0.580848 -0.867683 -6.17141
upperneck -3.45497 -0.865195 9.23432
head -1.14258 -0.425227 4.15396
rclavicle -1.49089e-014 -8.34896e-015
rhumerus -35.8965 -10.9007 -80.9932
rradius 33.4738
rwrist 24.9079
rhand 2.95474 -5.44427
rfingers 7.12502
rthumb 28.4173 -33.3067
lclavicle -1.49089e-014 -8.34896e-015
lhumerus -33.1921 17.4394 76.409
lradius 19.0745
lwrist -33.6258
lhand -5.71356 10.1631
lfingers 7.12502
lthumb 20.1077 39.1425
rfemur -5.37944 2.02926 25.7602
rtibia 22.4883
rfoot -12.784 29.4221
rtoes 42.2637
lfemur -33.3241 -3.55273 -15.259
ltibia 12.3118
lfoot 7.20325 -4.74326
ltoes 10.8153
248
root -8.1702 16.2238 16.6861 -169.696 25.5228 -179.023
lowerback -9.82841 -0.558255 -1.673
upperback 1.84458 -0.526679 -0.0890438
thorax 7.48717 -0.327276 0.763757
lowerneck 0.718246 -0.89667 -6.14625
upperneck -3.3948 -0.918771 9.19121
head -1.14334 -0.456172 4.13463
rclavicle 4.56708e-014 -6.75868e-015
rhumerus -36.3704 -11.064 -80.735
rradius 33.3502
rwrist 24.8994
rhand 2.9871 -5.46299
rfingers 7.12502
rthumb 28.4482 -33.3203
lclavicle 4.56708e-014 -6.75868e-015
lhumerus -33.5018 18.2475 75.8254
lradius 18.5798
lwrist -34.9793
lhand -6.24494 9.89377
lfingers 7.12502
lthumb 19.5969 38.9261
rfemur -3.67847 2.48696 25.5316
rtibia 21.7556
rfoot -11.5027 29.7151
rtoes 43.0918
lfemur -33.0283 -3.61466 -15.3484
ltibia 14.4013
lfoot 7.03841 -4.15598
ltoes 11.3064
